<svg width="920" height="92" viewBox="0 0 920 92" fill="none" xmlns="http://www.w3.org/2000/svg">
<path d="M0 89.2516V2.58938H64.5133C91.2229 2.58938 105.573 8.75365 105.573 23.4391C105.573 34.4985 97.1313 40.9649 86.6407 43.4427C100.086 45.8601 109.311 53.0517 109.311 64.7759C109.311 83.45 92.429 89.2516 60.353 89.2516H0ZM41.4211 70.5775H54.0223C61.2575 70.5775 65.9603 68.2207 65.9603 61.9959C65.9603 56.1338 61.3177 53.9583 54.2635 53.9583H41.4211V70.5775ZM41.4211 35.5863H53.6605C59.8105 35.5863 63.9103 33.4107 63.9103 28.032C63.9103 22.8952 59.6898 21.0217 53.9018 21.0217H41.4211V35.5863ZM117.677 89.2516V2.58938H212.276V23.6808H159.098V34.3776H202.75V55.9525H159.098V67.7371H212.276V89.2516H117.677ZM272.072 91.9107C240.72 91.9107 218.894 82.6644 218.292 63.7485H262.606C262.727 70.1545 267.129 73.6596 274.002 73.6596C278.644 73.6596 282.744 71.9071 282.744 67.6163C282.744 63.3255 279.006 61.5125 271.71 59.7599L253.864 55.7108C236.982 51.6617 219.618 45.7997 219.618 29.1803C219.618 8.02844 244.458 -0.00927734 271.71 -0.00927734C296.852 -0.00927734 322.658 7.72626 324.226 27.186H281.538C281.056 20.6591 276.775 18.1813 271.409 18.1813C266.344 18.1813 262.486 20.5382 262.486 24.406C262.486 28.3947 266.344 29.5429 271.108 30.812L294.561 36.1302C312.047 40.4814 326.215 46.8875 326.215 63.3255C326.215 83.9939 302.037 91.9107 272.072 91.9107ZM357.673 89.2516V27.3069H327.225V2.58938H429.543V27.3069H399.095V89.2516H357.673ZM466.789 89.2516L456.6 45.9809V89.2516H434.412V2.58938H456.6V39.454L467.03 2.58938H490.545L476.616 41.388L490.545 89.2516H466.789ZM492.761 89.2516V2.58938H538.402V19.2691H514.948V36.0698H534.362V52.81H514.948V72.5115H538.402V89.2516H492.761ZM543.271 89.2516V2.58938H569.138C586.14 2.58938 596.028 9.23712 596.028 29.1199V30.812C596.028 52.0847 585.657 58.3699 569.439 58.3699H565.459V89.2516H543.271ZM565.459 42.7175H566.485C571.308 42.7175 573.84 39.8771 573.84 32.1415V27.9112C573.84 20.5382 571.609 18.1813 566.605 18.1813H565.459V42.7175ZM611.388 89.2516V20.5987H596.496V2.58938H648.468V20.5987H633.575V89.2516H611.388ZM663.164 90.0373C654.422 90.0373 649.901 84.6586 649.901 76.7419V57.6447H661.597V76.621C661.597 78.3736 662.26 79.1591 663.225 79.1591C664.432 79.1591 664.973 78.1318 664.973 76.2583V62.0563C664.973 57.6447 664.009 55.7713 662.502 53.656L655.508 43.624C652.011 38.608 649.96 34.6194 649.96 27.7903V15.9453C649.96 7.12192 655.206 1.80374 663.647 1.80374C671.545 1.80374 676.731 6.63846 676.731 15.5223V30.3286H665.155V15.1596C665.155 13.5279 664.733 12.6215 663.527 12.6215C662.381 12.6215 661.838 13.4675 661.838 15.4014V26.9443C661.838 30.1473 662.26 32.0207 664.129 34.6798L670.882 44.3492C674.259 49.2443 676.791 52.9913 676.791 61.3312V75.654C676.791 84.7795 672.209 90.0373 663.164 90.0373ZM678.645 89.2516V2.58938H700.29V13.2862H690.282V39.2727H698.784V49.9696H690.282V78.5548H700.29V89.2516H678.645ZM715.048 89.9769C706.185 89.9769 701.663 84.9608 701.663 76.8627V15.2805C701.663 7.36366 706.427 1.86417 715.169 1.86417C723.79 1.86417 728.553 7.00106 728.553 15.2805V35.2237H716.796V14.374C716.796 13.2862 716.254 12.3796 715.169 12.3796C714.083 12.3796 713.601 13.2258 713.601 14.374V77.5274C713.601 78.6153 714.083 79.4613 715.169 79.4613C716.254 79.4613 716.796 78.6153 716.796 77.5274V53.656H728.553V76.8627C728.553 84.8399 723.911 89.9769 715.048 89.9769ZM730.589 89.2516V2.58938H744.155C753.621 2.58938 757.66 7.00106 757.66 16.187V30.8724C757.66 38.6685 754.827 42.2944 749.822 43.7448C755.972 45.014 757.48 47.5522 757.48 52.7496V89.2516H745.843V52.266C745.843 49.7883 744.999 48.8818 742.225 48.8818V89.2516H730.589ZM742.225 38.7893H742.527C744.938 38.7893 745.903 36.9763 745.903 33.8337V16.5496C745.903 13.7696 744.999 12.6215 742.527 12.6215H742.225V38.7893ZM759.877 89.2516V2.58938H781.522V13.2862H771.513V39.2727H780.015V49.9696H771.513V78.5548H781.522V89.2516H759.877ZM788.742 89.2516V13.5279H782.171V2.58938H807.012V13.5279H800.379V89.2516H788.742ZM809.529 89.2516V71.9071L829.426 44.8931C834.55 37.9432 839.133 31.779 839.133 23.4995V22.5326C839.133 19.6922 838.047 17.4561 835.335 17.4561C832.44 17.4561 831.114 19.8131 831.114 24.1643V32.202H808.625V27.4277C808.625 9.53924 819.478 1.07854 835.576 1.07854C850.89 1.07854 861.501 8.57234 861.501 25.0103C861.501 38.1245 854.628 46.8875 846.006 56.6777L832.44 72.0884H861.923V89.2516H809.529ZM893.442 90.7624C875.716 90.7624 866.069 81.3952 866.069 64.232V28.1529C866.069 10.6875 876.199 1.07854 893.804 1.07854C909.54 1.07854 919.127 10.1436 919.127 24.7686V27.4277H897.482V22.8348C897.482 19.2691 896.156 17.2144 893.081 17.2144C889.584 17.2144 888.318 19.8735 888.318 23.8621V41.5088C891.212 37.1576 896.517 34.0151 903.089 34.0151C912.977 34.0151 919.911 40.0584 919.911 53.7769V66.2263C919.911 82.7248 909.299 90.7624 893.442 90.7624ZM888.799 69.248C888.799 72.9345 890.428 74.9288 893.201 74.9288C896.035 74.9288 897.482 72.9345 897.482 69.248V55.1064C897.482 51.2387 895.914 49.3048 893.141 49.3048C890.367 49.3048 888.799 51.2387 888.799 54.9856V69.248Z" fill="currentColor"/>
</svg>
