<svg fill="none" height="25" viewBox="0 0 528 25" width="528" xmlns="http://www.w3.org/2000/svg"><g fill="#000"><path d="m4.80588 23.5144c-1.3848-.6612-2.45103-1.648-3.19219-2.9572-.741157-1.3093-1.111737-2.9112-1.111737-4.8125v-5.7106c0-1.91773.390084-3.54602 1.173507-4.88155.78341-1.33553 1.88215-2.33882 3.29295-3.01316 1.41081-.67105 3.05891-1.00658 4.94432-1.00658 1.88537 0 3.38727.30921 4.75577.92434 1.3653.61514 2.4348 1.55922 3.2084 2.83224.7737 1.27303 1.1605 2.86842 1.1605 4.78619h-7.08v-.5625c0-.91777-.1593-1.62829-.4778-2.13487-.3186-.50658-.8615-.75987-1.62214-.75987-.51686 0-.9362.11842-1.26127.35855s-.55912.57237-.70215 1-.21779.93421-.21779 1.51645v7.44736c0 .5625.06826 1.0559.20804 1.477.13978.421.37058.7598.69565 1.0098s.76066.3751 1.30678.3751c.51688 0 .92648-.1251 1.23528-.3751s.5266-.5953.6501-1.0394c.1236-.4441.1853-.9737.1853-1.5888v-.9869h7.08c0 2.1809-.3933 3.9441-1.1735 5.2895-.7834 1.3454-1.8626 2.3158-3.2377 2.9112-1.375.5954-2.9906.8914-4.84675.8914s-3.58552-.3322-4.97032-.9934z"/><path d="m24.4775 23.492c-1.4335-.6776-2.5355-1.7138-3.3092-3.1053-.7737-1.3914-1.1605-3.125-1.1605-5.2006v-4.8981c0-2.04273.3868-3.74668 1.1605-5.10852s1.8757-2.375 3.3092-3.04276c1.4336-.66776 3.1434-1 5.1329-1 1.9894 0 3.6993.32895 5.1328.98684 1.4336.6579 2.5356 1.66776 3.3092 3.02632.7737 1.36184 1.1605 3.07566 1.1605 5.13812v4.8981c0 2.0756-.39 3.8092-1.167 5.2006-.7769 1.3915-1.8854 2.4277-3.3157 3.1053-1.4335.6776-3.1369 1.0164-5.1166 1.0164-1.9796 0-3.6993-.3388-5.1328-1.0164zm6.5242-4.4605c.3608-.2599.6241-.6218.7899-1.0889.1658-.4638.247-1.0032.247-1.6184v-7.00985c0-.61513-.0812-1.1546-.247-1.61842s-.4291-.82566-.7899-1.08882c-.3609-.25986-.8257-.39144-1.3913-.39144-.8355 0-1.4498.2796-1.8399.83552-.3934.55921-.5884 1.3125-.5884 2.25987v7.00984c0 .6152.0813 1.1546.2471 1.6185.1657.4638.429.8256.7899 1.0888.3608.2598.8257.3914 1.3913.3914s1.0304-.1316 1.3913-.3914z"/><path d="m40.8822 1.60156h8.4583l4.668 12.98684h-.4324v-12.98684h6.3389v22.43424h-7.948l-5.2271-14.45726h.4941v14.45726h-6.3551v-22.43424z"/><path d="m62.0462 1.60156h8.4583l4.668 12.98684h-.4323v-12.98684h6.3389v22.43424h-7.948l-5.2271-14.45726h.4941v14.45726h-6.3551v-22.43424z"/><path d="m83.2129 1.60156h14.5956v4.74013h-7.8082v3.80261h6.4169v4.7566h-6.4169v4.3816h7.8082v4.7566h-14.5956z"/><path d="m103.025 23.5138c-1.385-.6612-2.451-1.648-3.1926-2.9573-.7411-1.3092-1.1117-2.9111-1.1117-4.8125v-5.7105c0-1.91775.3901-3.54604 1.1735-4.88157.7838-1.33552 1.8818-2.33881 3.2928-3.01316 1.411-.67434 3.062-1.00986 4.948-1.00986 1.885 0 3.387.30921 4.755.92434 1.366.61513 2.435 1.55921 3.209 2.83224.774 1.27302 1.16 2.86842 1.16 4.78618h-7.08v-.5625c0-.91776-.159-1.62829-.477-2.13487-.319-.50658-.862-.75987-1.623-.75987-.516 0-.936.11842-1.261.35856-.325.24013-.559.57236-.702 1-.143.42763-.218.93421-.218 1.51644v7.44737c0 .5625.069 1.0559.208 1.477.14.421.371.7598.696 1.0098s.761.375 1.307.375c.517 0 .926-.125 1.235-.375s.527-.5953.65-1.0394c.124-.4441.185-.9737.185-1.5888v-.9869h7.08c0 2.1809-.393 3.9441-1.173 5.2895-.783 1.3454-1.863 2.3158-3.238 2.9112s-2.99.8914-4.847.8914c-1.856 0-3.585-.3322-4.97-.9934z"/><path d="m122.376 6.90419h-4.808v-5.30263h16.42v5.30263h-4.808v17.13161h-6.804z"/><path d="m135.424 1.60156h14.595v4.74013h-7.808v3.80261h6.417v4.7566h-6.417v4.3816h7.808v4.7566h-14.595z"/><path d="m151.753 1.60156h8.953c1.895 0 3.51.29934 4.846.89803 1.337.59868 2.36 1.53618 3.076 2.80921.715 1.27303 1.076 2.90132 1.076 4.8816v5.1151c0 2.0033-.361 3.6513-1.083 4.9441s-1.775 2.2467-3.163 2.8618c-1.388.6152-3.094.9244-5.126.9244h-8.582v-22.43424zm9.291 16.93424c.474-.2237.832-.5921 1.076-1.102.24-.5099.364-1.2007.364-2.0658v-5.2895c0-.82233-.12-1.47694-.364-1.96378-.244-.48355-.602-.83224-1.076-1.03947-.475-.20724-1.089-.3125-1.84-.3125h-.65v12.10855h.65c.751 0 1.365-.1118 1.84-.3355z"/><path d="m184.789 8.17064h-8.812v-6.56908h29.685v6.57237h-8.813v15.86517h-12.06z"/><path d="m208.014 1.60156h12.06v7.73027h7.545v-7.73027h12.06v22.43424h-12.06v-8.1349h-7.545v8.1349h-12.06z"/><path d="m243.296 1.60156h19.589c2.526 0 4.619.24013 6.284.7204 1.664.48026 2.902 1.1875 3.718 2.12829.813.9375 1.223 2.09539 1.223 3.47368s-.394 2.59867-1.174 3.50327c-.783.9079-1.82 1.579-3.114 2.0198-1.294.4375-2.76.6875-4.398.75l1.235-.3915c1.742.1447 3.169.4046 4.281.773 1.112.3717 1.98.9704 2.597 1.7994.618.8289.927 1.9704.927 3.4177v4.2402h-12.06v-4.1448c0-.8651-.169-1.5394-.511-2.0263-.341-.4835-.861-.8256-1.56-1.0263-.702-.1974-1.635-.296-2.799-.296h-2.181v7.4934h-12.06v-22.43424zm17.934 9.23024c.641-.3848.959-1.00655.959-1.86182 0-.85526-.312-1.38815-.936-1.73026-.624-.33882-1.521-.50987-2.698-.50987h-3.202v4.67765h3.202c1.144 0 2.035-.1941 2.675-.579z"/><path d="m284.599 23.4124c-2.675-.9375-4.733-2.3092-6.176-4.1052-1.444-1.7994-2.165-3.9704-2.165-6.5165 0-2.546.751-4.67104 2.256-6.47039 1.505-1.79934 3.602-3.16447 6.293-4.09868 2.692-.93421 5.793-1.401318 9.307-1.401318s6.706.467108 9.391 1.401318 4.766 2.29605 6.245 4.0921c1.479 1.79277 2.22 3.95397 2.22 6.47697s-.705 4.7204-2.119 6.523c-1.411 1.806-3.456 3.1744-6.131 4.1086-2.676.9342-5.878 1.4013-9.609 1.4013-3.732 0-6.843-.4704-9.515-1.4079zm12.197-4.6381c.747-.4836 1.323-1.227 1.732-2.2303.407-1 .611-2.2533.611-3.7533s-.204-2.7467-.617-3.74012c-.413-.99014-.995-1.72369-1.746-2.19737-.751-.47369-1.638-.71053-2.659-.71053-1.567 0-2.795.55263-3.686 1.6579-.891 1.10526-1.336 2.76972-1.336 4.99012 0 1.5033.201 2.7533.604 3.7533.404 1 .979 1.7434 1.733 2.2303.751.4835 1.648.7269 2.692.7269 1.043 0 1.934-.2434 2.681-.7269z"/><path d="m321.11 23.7562c-2.298-.7106-3.995-1.7336-5.087-3.0757-1.092-1.3388-1.638-2.9737-1.638-4.9046v-14.17434h12.06v13.40794c0 1.0625.296 1.8684.887 2.4177.592.5461 1.447.8224 2.559.8224 1.111 0 1.979-.273 2.568-.8224.588-.546.881-1.352.881-2.4177v-13.40794h12.06v14.17434c0 1.9309-.546 3.5658-1.639 4.9046-1.092 1.3388-2.789 2.3651-5.087 3.0757-2.298.7105-5.227 1.0625-8.783 1.0625-3.557 0-6.482-.3553-8.784-1.0625z"/><path d="m356.06 23.4979c-2.666-.8815-4.704-2.1875-6.122-3.9177-1.417-1.7303-2.126-3.8487-2.126-6.352s.709-4.85855 2.126-6.72039c1.418-1.86184 3.459-3.27631 6.122-4.24013 2.665-.96381 5.834-1.447368 9.514-1.447368 3.329 0 6.222.365128 8.683 1.095398 2.457.73026 4.382 1.74342 5.773 3.03618s2.211 2.77961 2.458 4.46053h-12.958c-.081-1.02303-.464-1.82237-1.144-2.40132-.679-.57895-1.567-.86842-2.659-.86842s-2.032.23684-2.789.71053c-.757.47368-1.33 1.19408-1.716 2.15789-.387.96382-.579 2.1711-.579 3.6217 0 1.4507.228 2.773.679 3.7862.452 1.0132 1.145 1.7697 2.071 2.2763.927.5066 2.094.7599 3.495.7599.763 0 1.501-.0658 2.22-.1941.715-.1316 1.323-.3322 1.817-.602l-.387 2.9408v-4.8191h-6.557v-5.1644h18.539v10.3881c-1.073.4704-2.522.9211-4.352 1.352-1.831.4342-3.849.7862-6.053 1.0559-2.208.2698-4.359.4079-6.463.4079-3.731 0-6.93-.4408-9.592-1.3224z"/><path d="m385.705 1.60156h12.06v7.73027h7.545v-7.73027h12.06v22.43424h-12.06v-8.1349h-7.545v8.1349h-12.06z"/><path d="m428.641 1.60156h10.018l3.449 15.64474h-1.066l3.478-15.64474h9.756v22.43424h-6.804v-17.50661h.881l-3.943 17.50661h-5.874l-4.067-17.50661h.975v17.50661h-6.803z"/><path d="m460.722 23.7233c-1.411-.5527-2.471-1.352-3.176-2.4013-.705-1.0494-1.06-2.3323-1.06-3.8553v-15.86514h7.451v15.44074c0 .6876.179 1.2139.54 1.5724.36.3586.871.5395 1.531.5395s1.196-.1809 1.547-.5395c.351-.3585.527-.8848.527-1.5724v-15.44074h7.45v15.86514c0 1.523-.351 2.8125-1.05 3.8651-.702 1.0527-1.758 1.8553-3.176 2.4013-1.417.5461-3.182.8224-5.295.8224s-3.875-.2763-5.289-.8289z"/><path d="m481.455 23.8024c-1.401-.4901-2.49-1.2434-3.263-2.2598-.774-1.0165-1.161-2.2928-1.161-3.8257v-.2664h7.545v.3914c0 .6875.156 1.2072.471 1.5559.316.3487.755.523 1.324.523.484 0 .864-.1315 1.144-.398.279-.2664.422-.6743.432-1.227 0-.375-.068-.6875-.201-.9375-.134-.25-.332-.4703-.589-.6578s-.601-.3816-1.037-.579c-.081-.0329-.143-.0559-.179-.0789-.035-.0198-.094-.0461-.178-.079l-2.828-1.2039c-1.258-.5428-2.292-1.0856-3.102-1.6283-.809-.5428-1.449-1.2237-1.918-2.0428-.468-.8191-.702-1.82894-.702-3.02631 0-1.55263.403-2.84868 1.213-3.88815.809-1.03619 1.905-1.80264 3.286-2.29277 1.382-.49013 2.952-.73684 4.717-.73684 1.586 0 3.052.23355 4.392.69737 1.339.46382 2.425 1.1875 3.254 2.17434s1.245 2.23026 1.245 3.73026v.20395h-7.344v-.25c0-.64802-.149-1.13816-.448-1.47039-.299-.33224-.706-.5-1.222-.5-.475 0-.855.13158-1.145.39145-.289.25986-.432.61513-.432 1.0625v.09539c.019.32237.114.59868.279.82237.166.22368.381.41118.641.5625.263.15131.64.33552 1.138.55592l2.642 1.15791c.043.0099.078.0263.108.046 1.381.6152 2.499 1.2106 3.354 1.7829.855.5724 1.535 1.2994 2.042 2.1744.504.875.757 1.9671.757 3.2697-.009 1.5954-.409 2.9046-1.199 3.9276-.79 1.0231-1.876 1.7698-3.264 2.2468-1.388.4769-2.997.7105-4.83.7105-1.834 0-3.547-.2467-4.948-.7369z"/><path d="m497.318 1.60156h7.454v22.43424h-7.454z"/><path d="m511.502 23.3951c-1.573-.773-2.789-1.9342-3.647-3.4901-.861-1.5526-1.291-3.477-1.291-5.773v-2.8158c0-2.26316.449-4.15789 1.346-5.6875.897-1.52632 2.152-2.66776 3.765-3.41776 1.612-.75 3.501-1.125 5.665-1.125 1.957 0 3.697.32237 5.211.96381 1.515.64145 2.708 1.60527 3.579 2.89474.872 1.28947 1.327 2.86513 1.369 4.73355h-7.87v-.3125c0-.97039-.189-1.73684-.566-2.29934s-.991-.84539-1.846-.84539c-.65 0-1.174.16776-1.57.5-.397.33552-.683.79605-.858 1.38486-.176.58882-.264 1.28948-.264 2.10523v5.1941c0 .8257.088 1.5329.264 2.1283.175.5954.461 1.0592.858 1.3915.396.3355.92.5 1.57.5.608 0 1.099-.1481 1.476-.4474.377-.2961.643-.7007.803-1.2138.159-.5099.24-1.1053.24-1.7829v-.5625h7.763c-.042 2.1283-.51 3.8684-1.408 5.2269-.897 1.3553-2.113 2.3454-3.647 2.9737-1.537.625-3.319.9375-5.351.9375-2.155 0-4.017-.3848-5.588-1.1579z"/></g></svg>