<svg fill="none" height="28" viewBox="0 0 235 28" width="235" xmlns="http://www.w3.org/2000/svg" xmlns:xlink="http://www.w3.org/1999/xlink"><clipPath id="a"><path d="m.29541.5h234.409v27h-234.409z"/></clipPath><g clip-path="url(#a)"><path d="m8.04619 26.691c-2.46773 0-4.29826-.5445-5.49157-1.6335-1.19331-1.1007-1.789972-2.6242-1.789972-4.5705v-7.6987h6.238832v7.6291c0 .4403.08689.7705.26068.9906.18536.2085.44605.3127.78203.3127s.59087-.1042.76465-.3127c.18537-.2201.27805-.5503.27805-.9906v-19.06406h6.39531v19.09876c0 1.2976-.2724 2.4157-.8169 3.3541-.5444.9269-1.3728 1.6393-2.4851 2.1376-1.1122.4981-2.49087.7472-4.13601.7472zm17.08301.0174c-2.572 0-4.5242-.5503-5.8566-1.6509-1.3208-1.1123-1.9812-2.6821-1.9812-4.7096v-18.99456h6.4301v18.85556c0 .4634.1216.8284.365 1.0948.2432.2549.5908.3823 1.0427.3823.4634 0 .811-.1274 1.0427-.3823.2432-.2664.3648-.6314.3648-1.0948v-18.85556h6.4301v18.99456c0 2.0275-.6662 3.5973-1.9985 4.7096-1.3208 1.1006-3.2671 1.6509-5.8391 1.6509zm9.7319-25.35506h7.9766l3.9101 13.81586h-.2259v-13.81586h5.9782v24.92056h-7.4554l-4.4488-15.5884h.2432v15.5884h-5.978zm19.6374 0h13.1556v4.79643h-6.7602v4.83123h5.5957v4.8137h-5.5957v5.6654h6.7602v4.8138h-13.1556zm29.3521 7.00348 1.9812 3.04118h-9.4365v-7.00345h3.4758c1.1468 0 2.01-.09848 2.5893-.29543.5792-.19695.9732-.50397 1.1817-.92106.2202-.41707.336-1.02532.3476-1.82472h10.0794v24.92056h-10.2185zm13.2424 12.32128 9.767-6.3431c1.123-.7879 2.01-1.4482 2.659-1.9812.66-.5445 1.199-1.1353 1.616-1.7725.428-.64884.643-1.34397.643-2.08545 0-.67197-.192-1.21649-.574-1.63356-.371-.41709-.903-.62563-1.599-.62563-.776 0-1.384.26067-1.824.78203-.429.52135-.643 1.30917-.643 2.36346 0 .34756.011.64875.034.90365h-10.7741c.0926-2.16648.7183-3.96804 1.8769-5.40465 1.1585-1.43662 2.7222-2.49669 4.6922-3.18024 1.981-.69514 4.263-1.042707 6.847-1.042707 2.387 0 4.524.295432 6.413.886297 1.888.59086 3.377 1.50033 4.466 2.7284 1.1 1.22807 1.651 2.74 1.651 4.53576 0 1.49454-.371 2.80954-1.113 3.94494-.741 1.1238-1.714 2.1028-2.919 2.9369-1.205.8226-2.74 1.6972-4.605 2.6241l-6.448 3.2324-3.006-1.3556h18.265v6.0825h-25.425zm42.229-12.32128 1.982 3.04118h-9.436v-7.00345h3.475c1.147 0 2.009-.09848 2.589-.29543.579-.19695.973-.50397 1.181-.92106.221-.41707.337-1.02532.349-1.82472h10.078v24.92056h-10.218zm25.72 18.52538c-2.56 0-4.813-.3012-6.76-.9037-1.946-.614-3.482-1.5467-4.604-2.7979-1.114-1.2512-1.71-2.798-1.791-4.6401h10.584c.011.9385.231 1.6858.66 2.2419.429.556 1.054.8341 1.877.8341.775 0 1.378-.2201 1.807-.6603.44-.4519.661-1.1064.661-1.9638 0-.6489-.128-1.1702-.383-1.564-.255-.4055-.62-.7009-1.095-.8864-.475-.1853-1.048-.278-1.721-.278h-2.971v-5.6306h2.954c.718 0 1.304-.0869 1.755-.2607.452-.1738.777-.44024.974-.79939.208-.35915.312-.82837.312-1.40765 0-.71831-.202-1.26282-.608-1.63357-.393-.38232-.932-.57348-1.615-.57348-.765 0-1.374.2375-1.825.71251-.441.47501-.667 1.18172-.678 2.12016h-10.532c.104-1.73783.736-3.215 1.895-4.43149 1.169-1.21648 2.717-2.12595 4.64-2.7284 1.934-.61403 4.095-.921052 6.481-.921052 2.341 0 4.449.249089 6.327.747272 1.887.48659 3.388 1.25704 4.5 2.31132 1.124 1.05429 1.687 2.36925 1.687 3.94489 0 1.49455-.488 2.72258-1.461 3.68418-.973.9501-2.259 1.6337-3.857 2.0507 1.077.1738 2.051.5039 2.919.9905.869.4751 1.564 1.1296 2.086 1.9638.521.8226.781 1.8074.781 2.9544 0 1.7378-.573 3.1686-1.72 4.2924-1.136 1.1238-2.676 1.9464-4.622 2.4678-1.947.5097-4.166.7646-6.657.7646zm29.579-18.52538 1.98 3.04118h-9.436v-7.00345h3.476c1.147 0 2.01-.09848 2.589-.29543s.973-.50397 1.182-.92106c.22-.41707.336-1.02532.347-1.82472h10.08v24.92056h-10.218zm26.536-3.30189 1.356.48659-7.334 11.36548-.382-1.0948h19.793v6.0129h-27.196v-6.6386l9.192-13.83316h14.337v24.92056h-9.766z" fill="currentColor"/></g></svg>
