<svg fill="none" height="26" viewBox="0 0 43 26" width="43" xmlns="http://www.w3.org/2000/svg"><g fill="currentColor"><path d="m.09375.661621h3.81104c.8317 0 1.52669.136719 2.08496.410159.56966.27343.9969.68359 1.28173 1.23047.28483.54687.42725 1.23046.42725 2.05078v4.35791c0 .78613-.12533 1.43556-.37598 1.94826-.25065.5013-.61523.8887-1.09375 1.1621-.47851.262-1.07666.4215-1.79443.4785l-.1709-.4443c.85449.1253 1.53239.3076 2.03369.5468.50131.2279.87728.5982 1.12793 1.1109.26205.5127.39307 1.2248.39307 2.1362v5.3833c0 .9457-.15381 1.7261-.46143 2.3413-.29622.6039-.74625 1.0539-1.35009 1.3501-.59245.2962-1.32732.4444-2.20459.4444h-3.7085zm3.38379 21.652879c.36458 0 .62093-.1083.76904-.3248.14811-.2278.22217-.5924.22217-1.0937v-6.084c0-.3988-.07975-.695-.23926-.8887-.14811-.1936-.39876-.2905-.75195-.2905h-.08545v8.6817zm-.01709-11.5015c.3418 0 .58105-.1026.71777-.3076.14811-.2051.22217-.53551.22217-.99124v-4.95605c0-.36459-.07406-.62663-.22217-.78614-.14811-.1709-.38737-.25635-.71777-.25635h-.06836v7.29738z"/><path d="m12.1978 11.8384 1.5039-11.176779h3.3154l-2.3071 13.210479.1879-3.9136 2.1363 15.21h-3.4009zm-3.19585-11.176779h3.29835v24.506879h-3.29835z"/><path d="m21.2769 25.3906c-.809 0-1.4983-.1538-2.0679-.4614-.5583-.319-.9798-.7577-1.2647-1.3159-.2848-.5697-.4272-1.2305-.4272-1.9824v-5.4004h3.3154v5.3662c0 .2392.0399.4215.1196.5469.0798.1139.1937.1709.3418.1709.1709 0 .2963-.0684.376-.2051.0798-.1367.1197-.3418.1197-.6153v-4.0161c0-.3646-.0228-.6779-.0684-.9399-.0456-.2735-.1139-.5013-.2051-.6836-.0797-.1937-.188-.3931-.3247-.5982-.0228-.0341-.0399-.0569-.0513-.0683-.0114-.0228-.0284-.0513-.0512-.0855l-1.9825-2.8369c-.3645-.5241-.6608-.9969-.8886-1.4184-.2165-.433-.3874-.8944-.5127-1.38431-.114-.48991-.1709-1.04818-.1709-1.6748v-3.34961c0-.82032.1538-1.53239.4614-2.13623.319-.60384.769-1.06527 1.3501-1.384281s1.2703-.478516 2.0679-.478516c.7519 0 1.407.153809 1.9653.461426.5583.296221.9855.734861 1.2817 1.315921.3077.58105.4615 1.28174.4615 2.10205v4.18701h-3.2813v-4.28955c0-.23926-.0342-.41585-.1025-.52979-.0684-.12532-.188-.18798-.3589-.18798-.1595 0-.2791.06266-.3589.18798-.0797.12533-.1196.32471-.1196.59815v3.34961c0 .29622.0171.55827.0512.78613.0456.21647.114.42725.2051.63232.0912.20508.2222.43295.3931.6836l1.9141 2.73437c.0227.0228.0341.0342.0341.0342.3874.5696.6893 1.0539.9058 1.4526.2165.3988.3931.8659.5298 1.4014s.2051 1.1735.2051 1.914v4.0503c0 .8659-.1482 1.6008-.4444 2.2046-.2848.6039-.7177 1.0653-1.2988 1.3843-.5697.319-1.276.4785-2.1191.4785z"/><path d="m26.2202 21.9214 3.3496-10.3052c.057-.1595.1083-.319.1538-.4785.1595-.4899.2906-.9342.3931-1.33301.1025-.39877.1823-.82031.2393-1.26465.0569-.44434.0854-.92285.0854-1.43555v-2.95654c0-.12533-.0171-.23926-.0513-.3418-.0228-.10254-.0683-.18229-.1367-.23926-.0683-.06835-.1595-.10253-.2734-.10253-.1709 0-.2962.06266-.376.18798-.0797.12533-.1196.29623-.1196.5127v3.45215 1.26465h-3.2984v-4.44336c0-.82032.1538-1.5267.4615-2.11914.3076-.60385.7462-1.06527 1.3159-1.384281.581-.319011 1.2703-.478516 2.0678-.478516.7862 0 1.4584.153809 2.0167.461426.5696.307621.9969.769041 1.2817 1.384281.2962.60384.4443 1.3387.4443 2.20459v2.90527c0 .62663-.0398 1.21907-.1196 1.77734-.0684.54688-.1709 1.07095-.3076 1.57225s-.3076 1.0596-.5127 1.6748c-.1026.2962-.2108.5982-.3247.9058l-3.3496 9.3823-1.2134-.6152h5.8789v3.0591h-7.605z"/><path d="m38.9053 25.3735c-.8317 0-1.5381-.1538-2.1192-.4614-.5696-.3076-1.0026-.7519-1.2988-1.333-.2962-.5924-.4443-1.3045-.4443-2.1362v-16.98733c0-.82032.1481-1.5267.4443-2.11914.3076-.60385.7463-1.06527 1.3159-1.384282.5811-.330403 1.2761-.495605 2.085-.495605.7975 0 1.4697.165202 2.0166.495605.5583.319012.9741.769042 1.2475 1.350102.2849.58105.4273 1.26464.4273 2.05078v3.53759h-3.2642v-3.93066c0-.19368-.0398-.34749-.1196-.46142-.0798-.11394-.1994-.1709-.3589-.1709-.1139 0-.2051.02848-.2734.08545-.0684.04557-.1197.11962-.1538.22216-.0342.09115-.0513.19939-.0513.32471v7.91264l-.2905.0512c.1025-.3873.262-.7405.4785-1.0595.2279-.3304.507-.5925.8374-.7862.3418-.19366.7235-.2905 1.145-.2905.4671 0 .8602.10823 1.1792.3247.3304.2051.5754.5184.7349.9399.1709.4102.2563.9229.2563 1.5381v8.8868c0 .8317-.1481 1.538-.4443 2.1191-.2848.581-.7121 1.0254-1.2818 1.333-.5696.2962-1.2589.4443-2.0678.4443zm-.0342-2.8711c.1709 0 .2905-.0626.3589-.1879.0797-.1254.1196-.3077.1196-.5469v-8.3228c0-.1595-.0171-.2905-.0513-.393-.0341-.114-.0854-.1937-.1538-.2393-.0683-.057-.1595-.0854-.2734-.0854s-.2051.0284-.2734.0854c-.0684.057-.1197.1367-.1539.2393-.0341.1025-.0512.2278-.0512.3759v8.3399c0 .1595.0171.2962.0512.4101.0342.1026.0855.1823.1539.2393.0683.057.1595.0854.2734.0854z"/></g></svg>
